# xmcd
#
# Track frame offsets: 
#        150
#        7312
#        26397
#        50127
#        74207
#        93547
#        108725
#        125137
#        147927
#        167850
#        170462
#        190997
#        212740
#        225035
#        242412
#        262407
#        279695
#
# Disc length: 3810 seconds
#
# Revision: 3
# Processed by: cddbd v1.5.2PL0 Copyright (c) Steve Scherf et al.
# Submitted via: ExactAudioCopyFreeDBPlugin 1.0
#
DISCID=0c0ee011
DTITLE=Al Green - Anthology [The Right Stuff box set]
DYEAR=1997
DGENRE=Soul
TTITLE0=Interview:  "I Don't Have to Go to Your Church. . ."
TTITLE1=I'd Fly Away
TTITLE2=Full of Fire
TTITLE3=Together Again
TTITLE4=Love Ritual (1988 Remix)
TTITLE5=Always
TTITLE6=Have a Good Time
TTITLE7=Love and Happiness
TTITLE8=Too Close (live)
TTITLE9=Interview:  "We Try to Furnish. . ."
TTITLE10=Interview:  "But One Thing I Like About Jesus. . ."
TTITLE11=Belle
TTITLE12=Wait Here
TTITLE13=Chariots of Fire
TTITLE14=I Feel Good (live)
TTITLE15=Dreams All 'n' All (live)
TTITLE16=Interview:  "I Know One Thing I Had To Do. . ."
EXTD=
EXTT0=(Interview From the move Gospel According To Al Green.
EXTT1=
EXTT2=
EXTT3=
EXTT4=
EXTT5=
EXTT6=
EXTT7=
EXTT8=
EXTT9=(interview) From the move Gospel According To Al Green.
EXTT10=(Interview) From the move Gospel According To Al Green.
EXTT11=
EXTT12=
EXTT13=
EXTT14=
EXTT15=
EXTT16=(Interview) From the move Gospel According To Al Green.
PLAYORDER=
